HIERARCHY
ROOT Beta:Hips
{
	OFFSET 0.00 0.00 0.00
	CHANNELS 6 Xposition Yposition Zposition Yrotation Xrotation Zrotation
	JOINT Beta:Spine
	{
		OFFSET	0.0000	9.2263	1.5771
		CHANNELS 3 Xrotation Yrotation Zrotation
		JOINT Beta:Spine1
		{
			OFFSET	0.0000	16.2540	-0.1656
			CHANNELS 3 Xrotation Yrotation Zrotation
			JOINT Beta:Spine2
			{
				OFFSET	0.0000	13.6396	-1.2923
				CHANNELS 3 Xrotation Yrotation Zrotation
				JOINT Beta:Neck
				{
					OFFSET	0.0000	13.8774	-4.3542
					CHANNELS 3 Xrotation Yrotation Zrotation
					JOINT Beta:Neck1
					{
						OFFSET	0.0000	4.3400	0.9269
						CHANNELS 3 Xrotation Yrotation Zrotation
						JOINT Beta:Head
						{
							OFFSET	0.0000	4.0266	0.8585
							CHANNELS 3 Xrotation Yrotation Zrotation
							End Site
							{
								OFFSET 0.0000 23.0297 0.1231
							}
						}
					}
				}
				JOINT Beta:LeftShoulder
				{
					OFFSET	6.1442	10.1870	-3.7932
					CHANNELS 3 Zrotation Xrotation Yrotation
					JOINT Beta:LeftArm
					{
						OFFSET	12.3191	-1.1130	-1.7935
						CHANNELS 3 Zrotation Xrotation Yrotation
						JOINT Beta:LeftForeArm
						{
							OFFSET	27.6870	0.0000	0.0000
							CHANNELS 3 Xrotation Zrotation Yrotation
							JOINT Beta:LeftHand
							{
								OFFSET	27.8738	0.0000	0.0000
								CHANNELS 3 Zrotation Yrotation Xrotation
								JOINT Beta:LeftHandThumb1
								{
									OFFSET	2.3785	-1.0029	2.6209
									CHANNELS 3 Zrotation Xrotation Yrotation
									JOINT Beta:LeftHandThumb2
									{
										OFFSET	3.3624	-1.0029	2.8398
										CHANNELS 3 Zrotation Xrotation Yrotation
										JOINT Beta:LeftHandThumb3
										{
											OFFSET	4.5018	-1.3445	2.1783
											CHANNELS 3 Zrotation Xrotation Yrotation
											End Site
											{
												OFFSET 2.6000 -1.0000 1.0000
											}
										}
									}
								}
								JOINT Beta:LeftHandMiddle1
								{
									OFFSET	10.4639	0.6148	0.4298
									CHANNELS 3 Zrotation Xrotation Yrotation
									JOINT Beta:LeftHandMiddle2
									{
										OFFSET	5.7921	0.0000	0.0000
										CHANNELS 3 Zrotation Xrotation Yrotation
										JOINT Beta:LeftHandMiddle3
										{
											OFFSET	3.7132	0.0000	0.0000
											CHANNELS 3 Zrotation Xrotation Yrotation
											End Site
											{
												OFFSET 2.3000 0.0000 0.0000
											}
										}
									}
								}
								JOINT Beta:LeftHandIndex1
								{
									OFFSET	10.3945	0.6148	2.7055
									CHANNELS 3 Zrotation Xrotation Yrotation
									JOINT Beta:LeftHandIndex2
									{
										OFFSET	5.5493	0.0000	0.0000
										CHANNELS 3 Zrotation Xrotation Yrotation
										JOINT Beta:LeftHandIndex3
										{
											OFFSET	3.3911	0.0000	0.0000
											CHANNELS 3 Zrotation Xrotation Yrotation
											End Site
											{
												OFFSET 2.5000 0.0000 0.0000
											}
										}
									}
								}
								JOINT Beta:LeftHandRing1
								{
									OFFSET	10.3252	0.3211	-1.8755
									CHANNELS 3 Zrotation Xrotation Yrotation
									JOINT Beta:LeftHandRing2
									{
										OFFSET	5.4452	0.0000	0.0000
										CHANNELS 3 Zrotation Xrotation Yrotation
										JOINT Beta:LeftHandRing3
										{
											OFFSET	3.7132	0.0000	0.0000
											CHANNELS 3 Zrotation Xrotation Yrotation
											End Site
											{
												OFFSET 2.0000 0.0000 0.0000
											}
										}
									}
								}
								JOINT Beta:LeftHandPinky1
								{
									OFFSET	10.0130	-0.0783	-3.9671
									CHANNELS 3 Zrotation Xrotation Yrotation
									JOINT Beta:LeftHandPinky2
									{
										OFFSET	3.6763	0.0000	0.0000
										CHANNELS 3 Zrotation Xrotation Yrotation
										JOINT Beta:LeftHandPinky3
										{
											OFFSET	2.8113	0.0000	0.0000
											CHANNELS 3 Zrotation Xrotation Yrotation
											End Site
											{
												OFFSET 2.9000 0.0000 0.0000
											}
										}
									}
								}
							}
						}
					}
				}
				JOINT Beta:RightShoulder
				{
					OFFSET	-6.1402	10.1870	-3.7932
					CHANNELS 3 Zrotation Xrotation Yrotation
					JOINT Beta:RightArm
					{
						OFFSET	-12.3231	-1.1130	-1.7935
						CHANNELS 3 Zrotation Xrotation Yrotation
						JOINT Beta:RightForeArm
						{
							OFFSET	-27.6870	0.0000	0.0000
							CHANNELS 3 Xrotation Zrotation Yrotation
							JOINT Beta:RightHand
							{
								OFFSET	-27.8738	0.0000	0.0000
								CHANNELS 3 Zrotation Yrotation Xrotation
								JOINT Beta:RightHandThumb1
								{
									OFFSET	-2.5178	-0.9367	2.5137
									CHANNELS 3 Zrotation Xrotation Yrotation
									JOINT Beta:RightHandThumb2
									{
										OFFSET	-3.2638	-1.0870	2.9669
										CHANNELS 3 Zrotation Xrotation Yrotation
										JOINT Beta:RightHandThumb3
										{
											OFFSET	-4.4165	-1.3703	2.1350
											CHANNELS 3 Zrotation Xrotation Yrotation
											End Site
											{
												OFFSET -2.6000 -1.0000 1.0000
											}
										}
									}
								}
								JOINT Beta:RightHandIndex1
								{
									OFFSET	-10.4665	0.4896	2.7120
									CHANNELS 3 Zrotation Xrotation Yrotation
									JOINT Beta:RightHandIndex2
									{
										OFFSET	-5.3768	0.0000	0.0000
										CHANNELS 3 Zrotation Xrotation Yrotation
										JOINT Beta:RightHandIndex3
										{
											OFFSET	-3.3855	0.0000	0.0000
											CHANNELS 3 Zrotation Xrotation Yrotation
											End Site
											{
												OFFSET -2.6000 0.0000 0.0000
											}
										}
									}
								}
								JOINT Beta:RightHandMiddle1
								{
									OFFSET	-10.7596	0.4896	0.4278
									CHANNELS 3 Zrotation Xrotation Yrotation
									JOINT Beta:RightHandMiddle2
									{
										OFFSET	-5.6168	0.0000	0.0000
										CHANNELS 3 Zrotation Xrotation Yrotation
										JOINT Beta:RightHandMiddle3
										{
											OFFSET	-3.7364	0.0000	0.0000
											CHANNELS 3 Zrotation Xrotation Yrotation
											End Site
											{
												OFFSET -2.3000 0.0000 0.0000
											}
										}
									}
								}
								JOINT Beta:RightHandRing1
								{
									OFFSET	-10.4702	0.3879	-1.9363
									CHANNELS 3 Zrotation Xrotation Yrotation
									JOINT Beta:RightHandRing2
									{
										OFFSET	-5.4013	0.0000	0.0000
										CHANNELS 3 Zrotation Xrotation Yrotation
										JOINT Beta:RightHandRing3
										{
											OFFSET	-3.3916	0.0000	0.0000
											CHANNELS 3 Zrotation Xrotation Yrotation
											End Site
											{
												OFFSET -2.2000 0.0000 0.0000
											}
										}
									}
								}
								JOINT Beta:RightHandPinky1
								{
									OFFSET	-9.9715	-0.1191	-3.9540
									CHANNELS 3 Zrotation Xrotation Yrotation
									JOINT Beta:RightHandPinky2
									{
										OFFSET	-3.6528	0.0000	0.0000
										CHANNELS 3 Zrotation Xrotation Yrotation
										JOINT Beta:RightHandPinky3
										{
											OFFSET	-2.7820	0.0000	0.0000
											CHANNELS 3 Zrotation Xrotation Yrotation
											End Site
											{
												OFFSET -2.9000 0.0000 0.0000
											}
										}
									}
								}
							}
						}
					}
				}
			}
		}
	}
	JOINT Beta:LeftUpLeg
	{
		OFFSET	9.6338	-3.2733	0.0000
		CHANNELS 3 Xrotation Yrotation Zrotation
		JOINT Beta:LeftLeg
		{
			OFFSET	0.0000	-41.7300	-1.7300
			CHANNELS 3 Xrotation Yrotation Zrotation
			JOINT Beta:LeftFoot
			{
				OFFSET	0.0126	-39.1900	-0.8477
				CHANNELS 3 Xrotation Yrotation Zrotation
				JOINT Beta:LeftToeBase
				{
					OFFSET	-0.1833	-12.1931	8.2823
					CHANNELS 3 Xrotation Yrotation Zrotation
					End Site
					{
						OFFSET 0.0000 0.0000 10.1681
					}
				}
			}
		}
	}
	JOINT Beta:RightUpLeg
	{
		OFFSET	-9.6338	-3.2733	0.0000
		CHANNELS 3 Xrotation Yrotation Zrotation
		JOINT Beta:RightLeg
		{
			OFFSET	0.0000	-41.7300	-1.7300
			CHANNELS 3 Xrotation Yrotation Zrotation
			JOINT Beta:RightFoot
			{
				OFFSET	0.0126	-39.1900	-0.8477
				CHANNELS 3 Xrotation Yrotation Zrotation
				JOINT Beta:RightToeBase
				{
					OFFSET	-0.1833	-12.1931	8.2823
					CHANNELS 3 Xrotation Yrotation Zrotation
					End Site
					{
						OFFSET 0.0032 0.0000 10.1681
					}
				}
			}
		}
	}
}
MOTION
Frames: 6
Frame Time: 0.0333333
88.0559 94.2165 -0.3658 65.4383 4.7023 0.3913 5.9349 -6.8447 0.2929 4.2068 -4.6396 0.1228 4.1825 -4.6632 0.1032 4.6756 -5.6042 -1.8790 -0.0000 0.0000 -0.0000 -5.0535 -35.1855 7.6468 -9.7925 -1.2031 -6.7307 -52.3342 26.0636 -17.5429 -0.0000 0.0000 -11.4882 18.5576 5.5836 11.5056 -5.5542 6.6080 7.3220 17.1758 9.3400 -3.8096 11.7245 10.0000 -11.4957 -28.8383 -0.0000 -1.2365 -18.6544 0.0000 -0.0000 -11.1787 -0.0000 0.0000 -22.6340 0.0427 -5.5370 -12.1030 0.0000 -0.0000 -12.3461 0.0000 0.0000 -31.2713 -0.0000 2.4584 -23.3043 0.0000 -0.0000 -19.7335 -0.0000 0.0000 -33.8974 -0.0155 0.2176 -24.1344 -0.0000 -0.0000 -15.9607 0.0000 0.0000 7.6135 0.9163 -1.4673 66.2621 17.5311 10.5916 -0.0000 -0.0000 30.7902 -2.2016 13.7406 11.8287 -21.1938 36.1341 12.3699 6.4324 1.0920 -9.5923 1.9593 -10.0000 -3.4200 15.6876 0.0669 10.2596 28.9993 0.0000 0.0000 18.5696 0.0000 -0.0000 31.7876 0.0000 3.2409 25.7558 -0.0000 -0.0000 21.5508 0.0000 -0.0000 28.9368 0.0000 1.3332 31.9460 0.0000 -0.0000 33.7270 0.0000 0.0000 25.3585 -0.0155 0.4086 22.9657 -0.0000 0.0000 24.5855 -0.0000 -0.0000 -17.1770 7.2162 -3.0884 25.8414 -1.2314 -0.2769 -13.2592 -0.4682 4.7374 -8.2682 0.0000 0.0000 -33.8717 2.1004 -4.3746 62.0958 4.6147 0.0129 -1.7991 -0.1199 3.7922 -8.1583 0.0000 0.0000 
93.1910 94.5164 -0.0722 67.0809 4.9265 -0.4766 5.9654 -7.8605 1.5073 4.1654 -4.9118 0.6673 4.1329 -4.9431 0.6492 4.7832 -5.5982 -1.8914 -0.0000 0.0000 -0.0000 -4.9929 -35.1053 7.1419 -9.6233 -1.8664 -7.2717 -50.8913 25.2486 -19.8465 0.0000 0.0000 -13.8323 19.4639 4.6618 10.2859 -5.5542 6.6080 7.3220 17.6176 8.0777 -3.4978 10.9631 10.0000 -9.7928 -27.7457 -0.0000 -1.7122 -18.6104 -0.0000 -0.0000 -11.1348 -0.0000 -0.0000 -20.8300 0.0000 -6.1906 -12.0717 -0.0000 0.0000 -12.3146 0.0000 -0.0000 -30.1590 0.0000 2.3795 -23.3690 -0.0000 -0.0000 -19.7995 0.0000 0.0000 -33.3230 -0.0040 -0.0301 -24.2245 0.0000 -0.0000 -16.0555 0.0000 0.0000 7.5074 1.0936 -2.9113 65.7655 17.5787 8.4774 -0.0000 0.0000 27.5971 -1.5919 9.4342 10.6455 -21.1938 36.1341 12.3699 6.6208 1.4716 -9.8203 1.9551 -10.0000 -3.4036 16.0878 0.0788 10.1520 29.0283 0.0000 -0.0000 18.5989 -0.0000 -0.0000 31.8178 0.0000 3.2072 25.8184 -0.0000 0.0000 21.6140 0.0000 -0.0000 29.1514 0.0000 1.3886 31.9253 0.0000 0.0000 33.7060 0.0000 0.0000 25.2224 -0.0155 0.4966 22.9673 -0.0000 0.0000 24.5745 0.0000 -0.0000 -12.0943 6.7367 -3.6396 21.9163 -2.1088 -0.3621 -14.5464 -1.0407 5.8453 -7.8582 -0.0000 -0.0000 -36.2093 -0.2987 -1.1150 51.1599 2.2872 -0.0806 -4.2430 -0.2641 4.7611 -7.1506 -0.0000 -0.0000 
98.4519 94.0273 0.2904 69.2473 5.4838 -0.4978 5.7065 -9.5617 1.8090 3.9487 -5.3360 1.0176 3.8975 -5.3777 1.0110 4.7833 -5.5984 -1.7094 -0.0000 0.0000 -0.0000 -5.0077 -35.0232 7.0898 -9.4594 -2.4242 -7.8408 -48.9257 25.2138 -21.4633 0.0000 0.0000 -16.4917 20.1642 4.2256 7.9677 -5.5542 6.6080 7.3220 17.7745 6.5655 -3.5470 10.6323 10.0000 -9.0276 -27.3714 0.0000 -1.9604 -18.5775 0.0000 -0.0000 -11.1019 -0.0000 0.0000 -20.3077 0.0000 -6.4415 -12.0543 -0.0000 0.0000 -12.2979 0.0000 0.0000 -29.6854 0.0000 2.3024 -23.3955 -0.0000 0.0000 -19.8268 0.0000 -0.0000 -33.0222 -0.0000 -0.3865 -24.2344 0.0000 -0.0000 -16.0672 -0.0000 0.0000 7.4683 1.2369 -4.2942 65.4165 17.6195 5.7119 0.0000 0.0000 24.9589 -0.8472 5.3043 10.9311 -21.1938 36.1341 12.3699 7.1320 2.2532 -10.1145 1.9339 -10.0000 -3.3339 17.4462 0.0780 10.1585 29.0020 0.0000 0.0000 18.5723 0.0000 0.0000 32.3860 0.0000 3.1980 25.9087 0.0000 0.0000 21.7054 -0.0000 0.0000 29.6925 0.0000 1.5727 31.9013 -0.0000 -0.0000 33.6816 0.0000 -0.0000 25.4452 -0.0155 0.9137 22.9795 0.0000 0.0000 24.5932 -0.0000 -0.0000 -8.2133 6.8892 -4.5380 20.3698 -4.0609 -0.5122 -17.0725 -2.0105 7.4817 -7.3670 -0.0000 -0.0000 -37.0822 -1.5593 0.8184 36.7296 0.6692 -0.1400 -4.9411 -0.4403 6.2267 -6.8994 0.0000 0.0000 
103.9207 92.8909 0.6394 72.3002 5.8903 0.3122 5.4018 -12.1012 1.4681 3.6731 -5.8419 1.0037 3.6020 -5.8889 1.0147 4.6711 -5.6228 -1.3639 -0.0000 0.0000 -0.0000 -4.8745 -35.1602 7.7431 -9.3666 -2.7926 -8.5909 -46.1622 26.2366 -23.0254 -0.0000 0.0000 -19.1087 21.1135 4.2844 6.1001 -5.5542 6.6080 7.3220 17.7987 4.6995 -3.9712 10.4212 10.0000 -8.4944 -27.0080 0.0000 -2.1467 -18.5615 -0.0000 -0.0000 -11.0856 -0.0000 0.0000 -20.0505 -0.0000 -6.5715 -12.0455 0.0000 -0.0000 -12.2895 0.0000 0.0000 -29.1922 -0.0000 2.1975 -23.3876 0.0000 0.0000 -19.8196 0.0000 0.0000 -32.7800 -0.0000 -0.8939 -24.1652 -0.0000 0.0000 -15.9971 0.0000 -0.0000 7.5309 1.3273 -5.5861 65.6606 17.2208 1.9490 -0.0000 -0.0000 23.7975 -0.1219 0.8701 11.8243 -21.1938 36.1341 12.3699 7.6713 3.1755 -10.0732 1.9043 -9.9998 -3.2375 19.1042 0.0648 10.2741 28.9592 0.0000 -0.0000 18.5290 0.0000 -0.0000 33.1115 0.0000 3.1891 25.9789 -0.0000 -0.0000 21.7763 0.0000 0.0000 30.2361 0.0000 1.7778 31.8460 0.0000 -0.0000 33.6255 0.0000 0.0000 25.8992 -0.0155 1.4733 23.0013 -0.0000 0.0000 24.6241 0.0000 -0.0000 -4.4294 7.5832 -5.7764 20.2058 -6.8047 -0.6152 -20.3211 -4.1263 9.3839 -7.2400 0.0000 0.0000 -36.2058 -1.4503 1.1509 19.3633 -0.1341 -0.1693 -4.1536 -0.4414 7.4470 -6.8359 -0.0000 0.0000 
109.8643 91.0234 0.9119 76.8586 5.9538 1.6417 4.9553 -15.7560 1.1397 3.3596 -6.4052 0.8104 3.2864 -6.4466 0.8565 4.4190 -5.6786 -1.3536 -0.0000 0.0000 -0.0000 -4.5153 -35.6840 8.5412 -9.4334 -2.9247 -9.4631 -42.4408 28.1899 -25.4343 -0.0000 0.0000 -21.2997 21.9664 4.1751 4.9963 -5.5542 6.6080 7.3220 17.8798 2.6567 -4.8515 10.0126 10.0000 -7.6008 -26.0646 -0.0000 -2.3537 -18.5515 -0.0000 -0.0000 -11.0756 0.0000 0.0000 -19.0748 -0.0000 -6.8188 -12.0367 0.0000 0.0000 -12.2814 -0.0000 0.0000 -28.1529 -0.0000 2.0581 -23.3475 0.0000 0.0000 -19.7801 -0.0000 -0.0000 -32.3781 -0.0000 -1.3967 -24.0521 0.0000 0.0000 -15.8809 -0.0000 -0.0000 7.5986 1.3578 -6.6441 66.4681 16.1881 -1.8619 0.0000 -0.0000 22.9031 0.3855 -3.1447 12.3070 -21.1938 36.1341 12.3699 7.8597 3.9875 -9.2397 1.8803 -10.0000 -3.1596 19.9959 0.0509 10.3934 28.9058 0.0000 0.0000 18.4751 0.0000 0.0000 33.3658 0.0000 3.1361 25.9241 -0.0000 0.0000 21.7209 0.0000 -0.0000 30.2589 0.0000 1.8289 31.7190 -0.0000 -0.0000 33.4967 0.0000 -0.0000 26.2677 -0.0155 1.9177 23.0309 0.0000 0.0000 24.6399 -0.0000 0.0000 -0.4864 8.4449 -6.6519 21.6585 -8.2937 -0.7982 -24.6457 -9.5100 10.6383 -7.6806 -0.0000 -0.0000 -37.0343 -1.6146 -0.4429 7.9437 -1.4107 -0.2215 -6.2213 -0.5210 7.7989 -7.5828 -0.0000 0.0000 
115.7990 89.0465 1.0307 81.4221 5.8340 2.9484 4.7362 -19.1332 0.9270 3.1583 -6.9467 0.6292 3.0849 -6.9848 0.7016 4.0917 -5.7832 -1.3568 -0.0000 0.0000 -0.0000 -4.5548 -36.3803 8.8727 -9.6289 -2.8487 -10.1762 -38.2776 30.4100 -29.0689 0.0000 0.0000 -22.7172 22.1178 3.0684 4.1196 -5.5542 6.6080 7.3220 17.8832 1.8609 -6.1647 9.5189 10.0000 -6.8454 -25.1091 -0.0000 -2.4128 -18.5501 -0.0000 -0.0000 -11.0742 0.0000 0.0000 -18.0098 -0.0000 -6.9001 -12.0305 0.0000 0.0000 -12.2755 0.0000 -0.0000 -27.1183 -0.0000 1.9067 -23.2640 -0.0000 0.0000 -19.6968 -0.0000 -0.0000 -32.0250 -0.0000 -1.6624 -23.9091 0.0000 0.0000 -15.7323 -0.0000 0.0000 7.5813 1.3378 -7.2529 67.2297 14.9224 -3.9947 0.0000 -0.0000 19.9768 0.5701 -5.2185 12.0107 -21.1938 36.1341 12.3699 7.7696 4.6429 -8.0266 1.8664 -10.0000 -3.1146 19.8587 0.0491 10.4057 28.8074 -0.0000 -0.0000 18.3756 0.0000 0.0000 32.9316 -0.0000 3.0018 25.7317 0.0000 0.0000 21.5262 0.0000 -0.0000 29.6849 -0.0000 1.7013 31.5462 0.0000 -0.0000 33.3214 0.0000 -0.0000 26.2213 -0.0155 2.0821 23.0642 0.0000 0.0000 24.6503 0.0000 0.0000 4.7506 9.0734 -7.0051 20.8009 -8.1710 -0.9921 -28.1393 -16.2900 10.5656 -8.4171 -0.0000 -0.0000 -41.2193 -2.0472 -2.7844 8.2634 -3.9904 -0.3164 -12.5293 -1.3624 11.0875 -7.2017 0.0000 -0.0000 
